<svg xmlns="http://www.w3.org/2000/svg" xmlns:xlink="http://www.w3.org/1999/xlink" version="1.2" width="141.42mm" height="100mm" viewBox="0 0 141.42 100" stroke="none" fill="#000000" stroke-width="0.3" font-size="3.88">
<defs>
  <marker id="arrow" markerWidth="15" markerHeight="7" refX="5" refY="3.5" orient="auto" markerUnits="strokeWidth">
    <path d="M0,0 L15,3.5 L0,7 z" stroke="context-stroke" fill="context-stroke"></path>
  </marker>
</defs>
<g stroke-width="0.77" fill="#000000" fill-opacity="0.000" stroke="#D3D3D3" id="img-c25b596f-1">
  <g transform="translate(39.01,45.46)">
    <path fill="none" d="M-3.81,-5.84 L3.81,5.84 " class="primitive"></path>
  </g>
  <g transform="translate(24.8,14.93)">
    <path fill="none" d="M0.6,-3.92 L-0.6,3.92 " class="primitive"></path>
  </g>
  <g transform="translate(54.7,54.54)">
    <path fill="none" d="M6.51,0.5 L-6.51,-0.5 " class="primitive"></path>
  </g>
  <g transform="translate(113.46,80.68)">
    <path fill="none" d="M-1.26,2.81 L1.26,-2.81 " class="primitive"></path>
  </g>
  <g transform="translate(26.78,74.97)">
    <path fill="none" d="M3.6,-4.26 L-3.6,4.26 " class="primitive"></path>
  </g>
  <g transform="translate(122.75,76.84)">
    <path fill="none" d="M3.26,0.73 L-3.26,-0.73 " class="primitive"></path>
  </g>
  <g transform="translate(17.79,18.7)">
    <path fill="none" d="M-2.83,-1.33 L2.83,1.33 " class="primitive"></path>
  </g>
  <g transform="translate(88.82,51.78)">
    <path fill="none" d="M1.97,-2.97 L-1.97,2.97 " class="primitive"></path>
  </g>
  <g transform="translate(93.56,61.55)">
    <path fill="none" d="M5.26,2.76 L-5.26,-2.76 " class="primitive"></path>
  </g>
  <g transform="translate(28.69,29.35)">
    <path fill="none" d="M-3.37,-5.37 L3.37,5.37 " class="primitive"></path>
  </g>
  <g transform="translate(75.11,56.26)">
    <path fill="none" d="M6.36,0.58 L-6.36,-0.58 " class="primitive"></path>
  </g>
  <g transform="translate(38.37,61.07)">
    <path fill="none" d="M4.12,-5.01 L-4.12,5.01 " class="primitive"></path>
  </g>
  <g transform="translate(16.73,86.6)">
    <path fill="none" d="M2.47,-2.78 L-2.47,2.78 " class="primitive"></path>
  </g>
  <g transform="translate(108.87,70.61)">
    <path fill="none" d="M4.23,2.84 L-4.23,-2.84 " class="primitive"></path>
  </g>
</g>
<g stroke-width="0.77" stroke="#D3D3D3" id="img-c25b596f-2">
  <g transform="translate(41.27,48.93)">
    <path fill="none" d="M1.06,-1.78 L1.55,2.37 -2.6,-0.59 " class="primitive"></path>
  </g>
  <g transform="translate(24.6,16.26)">
    <path fill="none" d="M2.2,-1.14 L-0.4,2.59 -1.8,-1.45 " class="primitive"></path>
  </g>
  <g transform="translate(51.86,54.32)">
    <path fill="none" d="M1.62,1.56 L-3.67,-0.28 2.05,-1.27 " class="primitive"></path>
  </g>
  <g transform="translate(113.61,80.36)">
    <path fill="none" d="M-2.48,0.82 L1.11,-2.49 1.37,1.67 " class="primitive"></path>
  </g>
  <g transform="translate(25.07,76.99)">
    <path fill="none" d="M2.68,-0.39 L-1.89,2.24 -0.78,-1.85 " class="primitive"></path>
  </g>
  <g transform="translate(123.01,76.9)">
    <path fill="none" d="M1.15,1.75 L-3.52,-0.79 2.37,-0.97 " class="primitive"></path>
  </g>
  <g transform="translate(17.55,18.59)">
    <path fill="none" d="M-0.42,-1.91 L3.07,1.45 -2.65,0.46 " class="primitive"></path>
  </g>
  <g transform="translate(88.42,52.38)">
    <path fill="none" d="M2.61,-0.58 L-1.57,2.36 -1.04,-1.79 " class="primitive"></path>
  </g>
  <g transform="translate(91.26,60.34)">
    <path fill="none" d="M0.28,1.92 L-2.96,-1.56 2.68,-0.37 " class="primitive"></path>
  </g>
  <g transform="translate(30.56,32.34)">
    <path fill="none" d="M1.09,-1.77 L1.5,2.39 -2.59,-0.62 " class="primitive"></path>
  </g>
  <g transform="translate(72.42,56.01)">
    <path fill="none" d="M1.57,1.58 L-3.66,-0.33 2.09,-1.25 " class="primitive"></path>
  </g>
  <g transform="translate(36.11,63.82)">
    <path fill="none" d="M2.67,-0.41 L-1.86,2.26 -0.81,-1.84 " class="primitive"></path>
  </g>
  <g transform="translate(16.22,87.18)">
    <path fill="none" d="M2.69,-0.35 L-1.96,2.21 -0.73,-1.86 " class="primitive"></path>
  </g>
  <g transform="translate(107.31,69.56)">
    <path fill="none" d="M-0.05,1.93 L-2.68,-1.8 2.73,-0.13 " class="primitive"></path>
  </g>
</g>
<g font-size="4" stroke="#000000" stroke-opacity="0.000" fill="#000000" id="img-c25b596f-3">
</g>
<g stroke-width="0" stroke="#000000" stroke-opacity="0.000" fill="#40E0D0" id="img-c25b596f-4">
  <g transform="translate(33.6,37.18)">
    <circle cx="0" cy="0" r="3.65" class="primitive"></circle>
  </g>
  <g transform="translate(25.82,8.33)">
    <circle cx="0" cy="0" r="3.65" class="primitive"></circle>
  </g>
  <g transform="translate(64.98,55.33)">
    <circle cx="0" cy="0" r="3.65" class="primitive"></circle>
  </g>
  <g transform="translate(111.06,86.06)">
    <circle cx="0" cy="0" r="3.65" class="primitive"></circle>
  </g>
  <g transform="translate(32.34,68.4)">
    <circle cx="0" cy="0" r="3.65" class="primitive"></circle>
  </g>
  <g transform="translate(129.64,78.38)">
    <circle cx="0" cy="0" r="3.65" class="primitive"></circle>
  </g>
  <g transform="translate(11.79,15.88)">
    <circle cx="0" cy="0" r="3.65" class="primitive"></circle>
  </g>
  <g transform="translate(92.4,46.38)">
    <circle cx="0" cy="0" r="3.65" class="primitive"></circle>
  </g>
  <g transform="translate(12.24,91.67)">
    <circle cx="0" cy="0" r="3.65" class="primitive"></circle>
  </g>
  <g transform="translate(101.88,65.91)">
    <circle cx="0" cy="0" r="3.65" class="primitive"></circle>
  </g>
  <g transform="translate(23.79,21.53)">
    <circle cx="0" cy="0" r="3.65" class="primitive"></circle>
  </g>
  <g transform="translate(85.24,57.18)">
    <circle cx="0" cy="0" r="3.65" class="primitive"></circle>
  </g>
  <g transform="translate(44.41,53.74)">
    <circle cx="0" cy="0" r="3.65" class="primitive"></circle>
  </g>
  <g transform="translate(21.23,81.54)">
    <circle cx="0" cy="0" r="3.65" class="primitive"></circle>
  </g>
  <g transform="translate(115.86,75.31)">
    <circle cx="0" cy="0" r="3.65" class="primitive"></circle>
  </g>
</g>
<g font-size="4" stroke="#000000" stroke-opacity="0.000" fill="#FFFFFF" id="img-c25b596f-5">
  <g transform="translate(33.6,37.18)">
    <g class="primitive">
      <text text-anchor="middle" dy="0.35em">-0.29 | 0.00</text>
    </g>
  </g>
  <g transform="translate(25.82,8.33)">
    <g class="primitive">
      <text text-anchor="middle" dy="0.35em">0.15 | 0.00</text>
    </g>
  </g>
  <g transform="translate(64.98,55.33)">
    <g class="primitive">
      <text text-anchor="middle" dy="0.35em">0.97 | 0.00</text>
    </g>
  </g>
  <g transform="translate(111.06,86.06)">
    <g class="primitive">
      <text text-anchor="middle" dy="0.35em">0.48 | 0.00</text>
    </g>
  </g>
  <g transform="translate(32.34,68.4)">
    <g class="primitive">
      <text text-anchor="middle" dy="0.35em">0.68 | 0.00</text>
    </g>
  </g>
  <g transform="translate(129.64,78.38)">
    <g class="primitive">
      <text text-anchor="middle" dy="0.35em">1.00 | 0.00</text>
    </g>
  </g>
  <g transform="translate(11.79,15.88)">
    <g class="primitive">
      <text text-anchor="middle" dy="0.35em">-2.00 | 0.00</text>
    </g>
  </g>
  <g transform="translate(92.4,46.38)">
    <g class="primitive">
      <text text-anchor="middle" dy="0.35em">0.49 | 0.00</text>
    </g>
  </g>
  <g transform="translate(12.24,91.67)">
    <g class="primitive">
      <text text-anchor="middle" dy="0.35em">0.68 | 0.00</text>
    </g>
  </g>
  <g transform="translate(101.88,65.91)">
    <g class="primitive">
      <text text-anchor="middle" dy="0.35em">0.48 | 0.00</text>
    </g>
  </g>
  <g transform="translate(23.79,21.53)">
    <g class="primitive">
      <text text-anchor="middle" dy="0.35em">*</text>
    </g>
  </g>
  <g transform="translate(85.24,57.18)">
    <g class="primitive">
      <text text-anchor="middle" dy="0.35em">+</text>
    </g>
  </g>
  <g transform="translate(44.41,53.74)">
    <g class="primitive">
      <text text-anchor="middle" dy="0.35em">+</text>
    </g>
  </g>
  <g transform="translate(21.23,81.54)">
    <g class="primitive">
      <text text-anchor="middle" dy="0.35em">relu</text>
    </g>
  </g>
  <g transform="translate(115.86,75.31)">
    <g class="primitive">
      <text text-anchor="middle" dy="0.35em">*</text>
    </g>
  </g>
</g>
</svg>