<svg xmlns="http://www.w3.org/2000/svg" xmlns:xlink="http://www.w3.org/1999/xlink" version="1.2" width="141.42mm" height="100mm" viewBox="0 0 141.42 100" stroke="none" fill="#000000" stroke-width="0.3" font-size="3.88">
<defs>
  <marker id="arrow" markerWidth="15" markerHeight="7" refX="5" refY="3.5" orient="auto" markerUnits="strokeWidth">
    <path d="M0,0 L15,3.5 L0,7 z" stroke="context-stroke" fill="context-stroke"></path>
  </marker>
</defs>
<g stroke-width="1" fill="#000000" fill-opacity="0.000" stroke="#D3D3D3" id="img-e68f8a7d-1">
  <g transform="translate(21.95,28.15)">
    <path fill="none" d="M-5.43,-1.05 L5.43,1.05 " class="primitive"></path>
  </g>
  <g transform="translate(70.22,80.06)">
    <path fill="none" d="M-0.91,8.15 L0.91,-8.15 " class="primitive"></path>
  </g>
  <g transform="translate(34.31,19.23)">
    <path fill="none" d="M1.5,-7.46 L-1.5,7.46 " class="primitive"></path>
  </g>
  <g transform="translate(106.7,59.64)">
    <path fill="none" d="M-6.34,2.84 L6.34,-2.84 " class="primitive"></path>
  </g>
  <g transform="translate(60.88,59.59)">
    <path fill="none" d="M-7.46,-6.21 L7.46,6.21 " class="primitive"></path>
  </g>
  <g transform="translate(123.41,47.34)">
    <path fill="none" d="M-3.77,4.6 L3.77,-4.6 " class="primitive"></path>
  </g>
  <g transform="translate(83.86,66.39)">
    <path fill="none" d="M-7.56,1.26 L7.56,-1.26 " class="primitive"></path>
  </g>
  <g transform="translate(41.18,40.42)">
    <path fill="none" d="M-6.47,-7.36 L6.47,7.36 " class="primitive"></path>
  </g>
</g>
<g stroke-width="1" stroke="#D3D3D3" id="img-e68f8a7d-2">
  <g transform="translate(23.83,28.51)">
    <path fill="none" d="M-1.25,-1.72 L3.56,0.69 -2.31,1.03 " class="primitive"></path>
  </g>
  <g transform="translate(70.84,74.51)">
    <path fill="none" d="M-2.15,1.19 L0.29,-2.6 1.86,1.41 " class="primitive"></path>
  </g>
  <g transform="translate(33.33,24.1)">
    <path fill="none" d="M2.26,-1.09 L-0.52,2.58 -1.74,-1.49 " class="primitive"></path>
  </g>
  <g transform="translate(109.92,58.2)">
    <path fill="none" d="M-2.64,-0.51 L3.12,-1.4 -0.48,1.9 " class="primitive"></path>
  </g>
  <g transform="translate(65.95,63.81)">
    <path fill="none" d="M0.34,-1.92 L2.39,1.99 -2.73,-0.07 " class="primitive"></path>
  </g>
  <g transform="translate(125.33,44.99)">
    <path fill="none" d="M-2.67,0.42 L1.85,-2.26 0.82,1.84 " class="primitive"></path>
  </g>
  <g transform="translate(87.83,65.73)">
    <path fill="none" d="M-2.26,-1.09 L3.59,-0.6 -1.33,1.69 " class="primitive"></path>
  </g>
  <g transform="translate(45.7,45.56)">
    <path fill="none" d="M0.74,-1.86 L1.95,2.22 -2.69,-0.36 " class="primitive"></path>
  </g>
</g>
<g font-size="4" stroke="#000000" stroke-opacity="0.000" fill="#000000" id="img-e68f8a7d-3">
</g>
<g stroke-width="0" stroke="#000000" stroke-opacity="0.000" fill="#40E0D0" id="img-e68f8a7d-4">
  <g transform="translate(11.79,26.18)">
    <circle cx="0" cy="0" r="4.71" class="primitive"></circle>
  </g>
  <g transform="translate(68.92,91.67)">
    <circle cx="0" cy="0" r="4.71" class="primitive"></circle>
  </g>
  <g transform="translate(36.5,8.33)">
    <circle cx="0" cy="0" r="4.71" class="primitive"></circle>
  </g>
  <g transform="translate(129.64,39.73)">
    <circle cx="0" cy="0" r="4.71" class="primitive"></circle>
  </g>
  <g transform="translate(96.21,64.34)">
    <circle cx="0" cy="0" r="4.71" class="primitive"></circle>
  </g>
  <g transform="translate(50.24,50.73)">
    <circle cx="0" cy="0" r="4.71" class="primitive"></circle>
  </g>
  <g transform="translate(117.19,54.95)">
    <circle cx="0" cy="0" r="4.71" class="primitive"></circle>
  </g>
  <g transform="translate(71.52,68.45)">
    <circle cx="0" cy="0" r="4.71" class="primitive"></circle>
  </g>
  <g transform="translate(32.12,30.12)">
    <circle cx="0" cy="0" r="4.71" class="primitive"></circle>
  </g>
</g>
<g font-size="4" stroke="#000000" stroke-opacity="0.000" fill="#FFFFFF" id="img-e68f8a7d-5">
  <g transform="translate(11.79,26.18)">
    <g class="primitive">
      <text text-anchor="middle" dy="0.35em">2.00 | 4.00</text>
    </g>
  </g>
  <g transform="translate(68.92,91.67)">
    <g class="primitive">
      <text text-anchor="middle" dy="0.35em">4.00 | 3.00</text>
    </g>
  </g>
  <g transform="translate(36.5,8.33)">
    <g class="primitive">
      <text text-anchor="middle" dy="0.35em">1.00 | 4.00</text>
    </g>
  </g>
  <g transform="translate(129.64,39.73)">
    <g class="primitive">
      <text text-anchor="middle" dy="0.35em">12.00 | 1.00</text>
    </g>
  </g>
  <g transform="translate(96.21,64.34)">
    <g class="primitive">
      <text text-anchor="middle" dy="0.35em">12.00 | 1.00</text>
    </g>
  </g>
  <g transform="translate(50.24,50.73)">
    <g class="primitive">
      <text text-anchor="middle" dy="0.35em">3.00 | 4.00</text>
    </g>
  </g>
  <g transform="translate(117.19,54.95)">
    <g class="primitive">
      <text text-anchor="middle" dy="0.35em">relu</text>
    </g>
  </g>
  <g transform="translate(71.52,68.45)">
    <g class="primitive">
      <text text-anchor="middle" dy="0.35em">*</text>
    </g>
  </g>
  <g transform="translate(32.12,30.12)">
    <g class="primitive">
      <text text-anchor="middle" dy="0.35em">+</text>
    </g>
  </g>
</g>
</svg>