<svg xmlns="http://www.w3.org/2000/svg" xmlns:xlink="http://www.w3.org/1999/xlink" width="600" height="400" viewBox="0 0 2400 1600">
<defs>
  <clipPath id="clip490">
    <rect x="0" y="0" width="2400" height="1600"></rect>
  </clipPath>
</defs>
<path clip-path="url(#clip490)" d="
M0 1600 L2400 1600 L2400 0 L0 0  Z
  " fill="#ffffff" fill-rule="evenodd" fill-opacity="1"></path>
<defs>
  <clipPath id="clip491">
    <rect x="480" y="0" width="1681" height="1600"></rect>
  </clipPath>
</defs>
<path clip-path="url(#clip490)" d="
M447.244 1552.76 L1952.76 1552.76 L1952.76 47.2441 L447.244 47.2441  Z
  " fill="#ffffff" fill-rule="evenodd" fill-opacity="1"></path>
<defs>
  <clipPath id="clip492">
    <rect x="447" y="47" width="1507" height="1507"></rect>
  </clipPath>
</defs>
<polyline clip-path="url(#clip492)" style="stroke:#000000; stroke-linecap:butt; stroke-linejoin:round; stroke-width:4; stroke-opacity:1; fill:none" points="
  1059.79,262.317 1282.83,379.784 
  "></polyline>
<polyline clip-path="url(#clip492)" style="stroke:#000000; stroke-linecap:butt; stroke-linejoin:round; stroke-width:4; stroke-opacity:1; fill:none" points="
  1259.36,347.082 1282.83,379.784 1242.59,378.934 
  "></polyline>
<polyline clip-path="url(#clip492)" style="stroke:#000000; stroke-linecap:butt; stroke-linejoin:round; stroke-width:4; stroke-opacity:1; fill:none" points="
  1282.83,379.784 1059.79,262.317 
  "></polyline>
<polyline clip-path="url(#clip492)" style="stroke:#000000; stroke-linecap:butt; stroke-linejoin:round; stroke-width:4; stroke-opacity:1; fill:none" points="
  1257.25,805.231 1324.37,919.216 
  "></polyline>
<polyline clip-path="url(#clip492)" style="stroke:#000000; stroke-linecap:butt; stroke-linejoin:round; stroke-width:4; stroke-opacity:1; fill:none" points="
  1321.61,879.061 1324.37,919.216 1290.59,897.328 
  "></polyline>
<polyline clip-path="url(#clip492)" style="stroke:#000000; stroke-linecap:butt; stroke-linejoin:round; stroke-width:4; stroke-opacity:1; fill:none" points="
  1324.37,919.216 1257.25,805.231 
  "></polyline>
<polyline clip-path="url(#clip492)" style="stroke:#000000; stroke-linecap:butt; stroke-linejoin:round; stroke-width:4; stroke-opacity:1; fill:none" points="
  1653.62,308.184 1332.1,383.784 
  "></polyline>
<polyline clip-path="url(#clip492)" style="stroke:#000000; stroke-linecap:butt; stroke-linejoin:round; stroke-width:4; stroke-opacity:1; fill:none" points="
  1371.26,393.067 1332.1,383.784 1363.02,358.022 
  "></polyline>
<polyline clip-path="url(#clip492)" style="stroke:#000000; stroke-linecap:butt; stroke-linejoin:round; stroke-width:4; stroke-opacity:1; fill:none" points="
  1332.1,383.784 1653.62,308.184 
  "></polyline>
<polyline clip-path="url(#clip492)" style="stroke:#000000; stroke-linecap:butt; stroke-linejoin:round; stroke-width:4; stroke-opacity:1; fill:none" points="
  1520.34,1071.17 1556.93,1179.63 
  "></polyline>
<polyline clip-path="url(#clip492)" style="stroke:#000000; stroke-linecap:butt; stroke-linejoin:round; stroke-width:4; stroke-opacity:1; fill:none" points="
  1562.48,1139.76 1556.93,1179.63 1528.37,1151.27 
  "></polyline>
<polyline clip-path="url(#clip492)" style="stroke:#000000; stroke-linecap:butt; stroke-linejoin:round; stroke-width:4; stroke-opacity:1; fill:none" points="
  1556.93,1179.63 1520.34,1071.17 
  "></polyline>
<polyline clip-path="url(#clip492)" style="stroke:#000000; stroke-linecap:butt; stroke-linejoin:round; stroke-width:4; stroke-opacity:1; fill:none" points="
  662.317,683.444 1043.67,679.149 
  "></polyline>
<polyline clip-path="url(#clip492)" style="stroke:#000000; stroke-linecap:butt; stroke-linejoin:round; stroke-width:4; stroke-opacity:1; fill:none" points="
  1007.47,661.555 1043.67,679.149 1007.88,697.553 
  "></polyline>
<polyline clip-path="url(#clip492)" style="stroke:#000000; stroke-linecap:butt; stroke-linejoin:round; stroke-width:4; stroke-opacity:1; fill:none" points="
  1043.67,679.149 662.317,683.444 
  "></polyline>
<polyline clip-path="url(#clip492)" style="stroke:#000000; stroke-linecap:butt; stroke-linejoin:round; stroke-width:4; stroke-opacity:1; fill:none" points="
  1218.69,529.285 1092.94,664.782 
  "></polyline>
<polyline clip-path="url(#clip492)" style="stroke:#000000; stroke-linecap:butt; stroke-linejoin:round; stroke-width:4; stroke-opacity:1; fill:none" points="
  1130.62,650.638 1092.94,664.782 1104.24,626.15 
  "></polyline>
<polyline clip-path="url(#clip492)" style="stroke:#000000; stroke-linecap:butt; stroke-linejoin:round; stroke-width:4; stroke-opacity:1; fill:none" points="
  1092.94,664.782 1218.69,529.285 
  "></polyline>
<polyline clip-path="url(#clip492)" style="stroke:#000000; stroke-linecap:butt; stroke-linejoin:round; stroke-width:4; stroke-opacity:1; fill:none" points="
  1068.31,671.869 1234.63,765.813 
  "></polyline>
<polyline clip-path="url(#clip492)" style="stroke:#000000; stroke-linecap:butt; stroke-linejoin:round; stroke-width:4; stroke-opacity:1; fill:none" points="
  1212.14,732.436 1234.63,765.813 1194.43,763.782 
  "></polyline>
<polyline clip-path="url(#clip492)" style="stroke:#000000; stroke-linecap:butt; stroke-linejoin:round; stroke-width:4; stroke-opacity:1; fill:none" points="
  1234.63,765.813 1068.31,671.869 
  "></polyline>
<polyline clip-path="url(#clip492)" style="stroke:#000000; stroke-linecap:butt; stroke-linejoin:round; stroke-width:4; stroke-opacity:1; fill:none" points="
  1631.61,1204.41 1733.37,1298.27 
  "></polyline>
<polyline clip-path="url(#clip492)" style="stroke:#000000; stroke-linecap:butt; stroke-linejoin:round; stroke-width:4; stroke-opacity:1; fill:none" points="
  1719.11,1260.63 1733.37,1298.27 1694.7,1287.09 
  "></polyline>
<polyline clip-path="url(#clip492)" style="stroke:#000000; stroke-linecap:butt; stroke-linejoin:round; stroke-width:4; stroke-opacity:1; fill:none" points="
  1733.37,1298.27 1631.61,1204.41 
  "></polyline>
<polyline clip-path="url(#clip492)" style="stroke:#000000; stroke-linecap:butt; stroke-linejoin:round; stroke-width:4; stroke-opacity:1; fill:none" points="
  1399.05,938.07 1512.33,1031.75 
  "></polyline>
<polyline clip-path="url(#clip492)" style="stroke:#000000; stroke-linecap:butt; stroke-linejoin:round; stroke-width:4; stroke-opacity:1; fill:none" points="
  1496.05,994.935 1512.33,1031.75 1473.11,1022.68 
  "></polyline>
<polyline clip-path="url(#clip492)" style="stroke:#000000; stroke-linecap:butt; stroke-linejoin:round; stroke-width:4; stroke-opacity:1; fill:none" points="
  1512.33,1031.75 1399.05,938.07 
  "></polyline>
<polyline clip-path="url(#clip492)" style="stroke:#000000; stroke-linecap:butt; stroke-linejoin:round; stroke-width:4; stroke-opacity:1; fill:none" points="
  1307.46,381.664 1218.03,489.868 
  "></polyline>
<polyline clip-path="url(#clip492)" style="stroke:#000000; stroke-linecap:butt; stroke-linejoin:round; stroke-width:4; stroke-opacity:1; fill:none" points="
  1254.84,473.586 1218.03,489.868 1227.09,450.652 
  "></polyline>
<polyline clip-path="url(#clip492)" style="stroke:#000000; stroke-linecap:butt; stroke-linejoin:round; stroke-width:4; stroke-opacity:1; fill:none" points="
  1218.03,489.868 1307.46,381.664 
  "></polyline>
<path clip-path="url(#clip492)" d="
M892.031 301.734 L1227.54 301.734 L1227.54 222.9 L892.031 222.9 L892.031 301.734 L892.031 301.734  Z
  " fill="#009af9" fill-rule="evenodd" fill-opacity="1"></path>
<polyline clip-path="url(#clip492)" style="stroke:#000000; stroke-linecap:butt; stroke-linejoin:round; stroke-width:4; stroke-opacity:1; fill:none" points="
  892.031,301.734 1227.54,301.734 1227.54,222.9 892.031,222.9 892.031,301.734 
  "></polyline>
<path clip-path="url(#clip492)" d="
M1077.4 844.648 L1437.1 844.648 L1437.1 765.813 L1077.4 765.813 L1077.4 844.648 L1077.4 844.648  Z
  " fill="#009af9" fill-rule="evenodd" fill-opacity="1"></path>
<polyline clip-path="url(#clip492)" style="stroke:#000000; stroke-linecap:butt; stroke-linejoin:round; stroke-width:4; stroke-opacity:1; fill:none" points="
  1077.4,844.648 1437.1,844.648 1437.1,765.813 1077.4,765.813 1077.4,844.648 
  "></polyline>
<path clip-path="url(#clip492)" d="
M1534.23 1377.1 L1941.14 1377.1 L1941.14 1298.27 L1534.23 1298.27 L1534.23 1377.1 L1534.23 1377.1  Z
  " fill="#009af9" fill-rule="evenodd" fill-opacity="1"></path>
<polyline clip-path="url(#clip492)" style="stroke:#000000; stroke-linecap:butt; stroke-linejoin:round; stroke-width:4; stroke-opacity:1; fill:none" points="
  1534.23,1377.1 1941.14,1377.1 1941.14,1298.27 1534.23,1298.27 1534.23,1377.1 
  "></polyline>
<path clip-path="url(#clip492)" d="
M1485.86 347.601 L1821.38 347.601 L1821.38 268.767 L1485.86 268.767 L1485.86 347.601 L1485.86 347.601  Z
  " fill="#009af9" fill-rule="evenodd" fill-opacity="1"></path>
<polyline clip-path="url(#clip492)" style="stroke:#000000; stroke-linecap:butt; stroke-linejoin:round; stroke-width:4; stroke-opacity:1; fill:none" points="
  1485.86,347.601 1821.38,347.601 1821.38,268.767 1485.86,268.767 1485.86,347.601 
  "></polyline>
<path clip-path="url(#clip492)" d="
M1316.89 1110.58 L1723.8 1110.58 L1723.8 1031.75 L1316.89 1031.75 L1316.89 1110.58 L1316.89 1110.58  Z
  " fill="#009af9" fill-rule="evenodd" fill-opacity="1"></path>
<polyline clip-path="url(#clip492)" style="stroke:#000000; stroke-linecap:butt; stroke-linejoin:round; stroke-width:4; stroke-opacity:1; fill:none" points="
  1316.89,1110.58 1723.8,1110.58 1723.8,1031.75 1316.89,1031.75 1316.89,1110.58 
  "></polyline>
<path clip-path="url(#clip492)" d="
M494.561 722.861 L830.073 722.861 L830.073 644.027 L494.561 644.027 L494.561 722.861 L494.561 722.861  Z
  " fill="#009af9" fill-rule="evenodd" fill-opacity="1"></path>
<polyline clip-path="url(#clip492)" style="stroke:#000000; stroke-linecap:butt; stroke-linejoin:round; stroke-width:4; stroke-opacity:1; fill:none" points="
  494.561,722.861 830.073,722.861 830.073,644.027 494.561,644.027 494.561,722.861 
  "></polyline>
<path clip-path="url(#clip492)" d="
M1050.93 568.702 L1386.44 568.702 L1386.44 489.868 L1050.93 489.868 L1050.93 568.702 L1050.93 568.702  Z
  " fill="#009af9" fill-rule="evenodd" fill-opacity="1"></path>
<polyline clip-path="url(#clip492)" style="stroke:#000000; stroke-linecap:butt; stroke-linejoin:round; stroke-width:4; stroke-opacity:1; fill:none" points="
  1050.93,568.702 1386.44,568.702 1386.44,489.868 1050.93,489.868 1050.93,568.702 
  "></polyline>
<path clip-path="url(#clip492)" d="
M1043.67 711.286 L1092.94 711.286 L1092.94 632.452 L1043.67 632.452 L1043.67 711.286 L1043.67 711.286  Z
  " fill="#009af9" fill-rule="evenodd" fill-opacity="1"></path>
<polyline clip-path="url(#clip492)" style="stroke:#000000; stroke-linecap:butt; stroke-linejoin:round; stroke-width:4; stroke-opacity:1; fill:none" points="
  1043.67,711.286 1092.94,711.286 1092.94,632.452 1043.67,632.452 1043.67,711.286 
  "></polyline>
<path clip-path="url(#clip492)" d="
M1556.93 1243.82 L1706.29 1243.82 L1706.29 1164.99 L1556.93 1164.99 L1556.93 1243.82 L1556.93 1243.82  Z
  " fill="#009af9" fill-rule="evenodd" fill-opacity="1"></path>
<polyline clip-path="url(#clip492)" style="stroke:#000000; stroke-linecap:butt; stroke-linejoin:round; stroke-width:4; stroke-opacity:1; fill:none" points="
  1556.93,1243.82 1706.29,1243.82 1706.29,1164.99 1556.93,1164.99 1556.93,1243.82 
  "></polyline>
<path clip-path="url(#clip492)" d="
M1324.37 977.487 L1473.73 977.487 L1473.73 898.653 L1324.37 898.653 L1324.37 977.487 L1324.37 977.487  Z
  " fill="#009af9" fill-rule="evenodd" fill-opacity="1"></path>
<polyline clip-path="url(#clip492)" style="stroke:#000000; stroke-linecap:butt; stroke-linejoin:round; stroke-width:4; stroke-opacity:1; fill:none" points="
  1324.37,977.487 1473.73,977.487 1473.73,898.653 1324.37,898.653 1324.37,977.487 
  "></polyline>
<path clip-path="url(#clip492)" d="
M1282.83 421.081 L1332.1 421.081 L1332.1 342.247 L1282.83 342.247 L1282.83 421.081 L1282.83 421.081  Z
  " fill="#009af9" fill-rule="evenodd" fill-opacity="1"></path>
<polyline clip-path="url(#clip492)" style="stroke:#000000; stroke-linecap:butt; stroke-linejoin:round; stroke-width:4; stroke-opacity:1; fill:none" points="
  1282.83,421.081 1332.1,421.081 1332.1,342.247 1282.83,342.247 1282.83,421.081 
  "></polyline>
<path clip-path="url(#clip492)" d="M1059.39 261.917 L1059.39 262.717 L1060.19 262.717 L1060.19 261.917 L1059.39 261.917 Z" fill="#009af9" fill-rule="evenodd" fill-opacity="1" stroke="#000000" stroke-opacity="1" stroke-width="3.2"></path>
<path clip-path="url(#clip492)" d="M1256.85 804.831 L1256.85 805.631 L1257.65 805.631 L1257.65 804.831 L1256.85 804.831 Z" fill="#009af9" fill-rule="evenodd" fill-opacity="1" stroke="#000000" stroke-opacity="1" stroke-width="3.2"></path>
<path clip-path="url(#clip492)" d="M1737.28 1337.28 L1737.28 1338.08 L1738.08 1338.08 L1738.08 1337.28 L1737.28 1337.28 Z" fill="#009af9" fill-rule="evenodd" fill-opacity="1" stroke="#000000" stroke-opacity="1" stroke-width="3.2"></path>
<path clip-path="url(#clip492)" d="M1653.22 307.784 L1653.22 308.584 L1654.02 308.584 L1654.02 307.784 L1653.22 307.784 Z" fill="#009af9" fill-rule="evenodd" fill-opacity="1" stroke="#000000" stroke-opacity="1" stroke-width="3.2"></path>
<path clip-path="url(#clip492)" d="M1519.94 1070.77 L1519.94 1071.57 L1520.74 1071.57 L1520.74 1070.77 L1519.94 1070.77 Z" fill="#009af9" fill-rule="evenodd" fill-opacity="1" stroke="#000000" stroke-opacity="1" stroke-width="3.2"></path>
<path clip-path="url(#clip492)" d="M661.917 683.044 L661.917 683.844 L662.717 683.844 L662.717 683.044 L661.917 683.044 Z" fill="#009af9" fill-rule="evenodd" fill-opacity="1" stroke="#000000" stroke-opacity="1" stroke-width="3.2"></path>
<path clip-path="url(#clip492)" d="M1218.29 528.885 L1218.29 529.685 L1219.09 529.685 L1219.09 528.885 L1218.29 528.885 Z" fill="#009af9" fill-rule="evenodd" fill-opacity="1" stroke="#000000" stroke-opacity="1" stroke-width="3.2"></path>
<path clip-path="url(#clip492)" d="M1067.91 671.469 L1067.91 672.269 L1068.71 672.269 L1068.71 671.469 L1067.91 671.469 Z" fill="#009af9" fill-rule="evenodd" fill-opacity="1" stroke="#000000" stroke-opacity="1" stroke-width="3.2"></path>
<path clip-path="url(#clip492)" d="M1631.21 1204.01 L1631.21 1204.81 L1632.01 1204.81 L1632.01 1204.01 L1631.21 1204.01 Z" fill="#009af9" fill-rule="evenodd" fill-opacity="1" stroke="#000000" stroke-opacity="1" stroke-width="3.2"></path>
<path clip-path="url(#clip492)" d="M1398.65 937.67 L1398.65 938.47 L1399.45 938.47 L1399.45 937.67 L1398.65 937.67 Z" fill="#009af9" fill-rule="evenodd" fill-opacity="1" stroke="#000000" stroke-opacity="1" stroke-width="3.2"></path>
<path clip-path="url(#clip492)" d="M1307.06 381.264 L1307.06 382.064 L1307.86 382.064 L1307.86 381.264 L1307.06 381.264 Z" fill="#009af9" fill-rule="evenodd" fill-opacity="1" stroke="#000000" stroke-opacity="1" stroke-width="3.2"></path>
<path clip-path="url(#clip490)" d="M910.193 278.998 L930.592 278.998 L930.592 283.917 L903.162 283.917 L903.162 278.998 Q906.489 275.555 912.218 269.768 Q917.976 263.952 919.452 262.274 Q922.259 259.12 923.358 256.95 Q924.487 254.751 924.487 252.638 Q924.487 249.195 922.056 247.025 Q919.655 244.855 915.777 244.855 Q913.028 244.855 909.961 245.81 Q906.923 246.765 903.451 248.703 L903.451 242.801 Q906.981 241.383 910.048 240.659 Q913.115 239.936 915.662 239.936 Q922.374 239.936 926.367 243.292 Q930.361 246.649 930.361 252.262 Q930.361 254.924 929.348 257.326 Q928.364 259.699 925.731 262.939 Q925.008 263.778 921.13 267.8 Q917.253 271.793 910.193 278.998 Z" fill="#000000" fill-rule="evenodd" fill-opacity="1"></path><path clip-path="url(#clip490)" d="M942.86 276.568 L948.966 276.568 L948.966 283.917 L942.86 283.917 L942.86 276.568 Z" fill="#000000" fill-rule="evenodd" fill-opacity="1"></path><path clip-path="url(#clip490)" d="M974.197 244.566 Q969.683 244.566 967.397 249.022 Q965.14 253.449 965.14 262.361 Q965.14 271.244 967.397 275.7 Q969.683 280.127 974.197 280.127 Q978.74 280.127 980.997 275.7 Q983.283 271.244 983.283 262.361 Q983.283 253.449 980.997 249.022 Q978.74 244.566 974.197 244.566 M974.197 239.936 Q981.46 239.936 985.279 245.694 Q989.128 251.423 989.128 262.361 Q989.128 273.269 985.279 279.027 Q981.46 284.756 974.197 284.756 Q966.934 284.756 963.086 279.027 Q959.267 273.269 959.267 262.361 Q959.267 251.423 963.086 245.694 Q966.934 239.936 974.197 239.936 Z" fill="#000000" fill-rule="evenodd" fill-opacity="1"></path><path clip-path="url(#clip490)" d="M1011.9 244.566 Q1007.39 244.566 1005.1 249.022 Q1002.84 253.449 1002.84 262.361 Q1002.84 271.244 1005.1 275.7 Q1007.39 280.127 1011.9 280.127 Q1016.44 280.127 1018.7 275.7 Q1020.99 271.244 1020.99 262.361 Q1020.99 253.449 1018.7 249.022 Q1016.44 244.566 1011.9 244.566 M1011.9 239.936 Q1019.16 239.936 1022.98 245.694 Q1026.83 251.423 1026.83 262.361 Q1026.83 273.269 1022.98 279.027 Q1019.16 284.756 1011.9 284.756 Q1004.64 284.756 1000.79 279.027 Q996.969 273.269 996.969 262.361 Q996.969 251.423 1000.79 245.694 Q1004.64 239.936 1011.9 239.936 Z" fill="#000000" fill-rule="evenodd" fill-opacity="1"></path><path clip-path="url(#clip490)" d="M1062.04 238.634 L1062.04 297.893 L1057.12 297.893 L1057.12 238.634 L1062.04 238.634 Z" fill="#000000" fill-rule="evenodd" fill-opacity="1"></path><path clip-path="url(#clip490)" d="M1107.24 244.566 Q1102.73 244.566 1100.44 249.022 Q1098.18 253.449 1098.18 262.361 Q1098.18 271.244 1100.44 275.7 Q1102.73 280.127 1107.24 280.127 Q1111.78 280.127 1114.04 275.7 Q1116.33 271.244 1116.33 262.361 Q1116.33 253.449 1114.04 249.022 Q1111.78 244.566 1107.24 244.566 M1107.24 239.936 Q1114.5 239.936 1118.32 245.694 Q1122.17 251.423 1122.17 262.361 Q1122.17 273.269 1118.32 279.027 Q1114.5 284.756 1107.24 284.756 Q1099.98 284.756 1096.13 279.027 Q1092.31 273.269 1092.31 262.361 Q1092.31 251.423 1096.13 245.694 Q1099.98 239.936 1107.24 239.936 Z" fill="#000000" fill-rule="evenodd" fill-opacity="1"></path><path clip-path="url(#clip490)" d="M1132.44 276.568 L1138.55 276.568 L1138.55 283.917 L1132.44 283.917 L1132.44 276.568 Z" fill="#000000" fill-rule="evenodd" fill-opacity="1"></path><path clip-path="url(#clip490)" d="M1163.78 244.566 Q1159.27 244.566 1156.98 249.022 Q1154.72 253.449 1154.72 262.361 Q1154.72 271.244 1156.98 275.7 Q1159.27 280.127 1163.78 280.127 Q1168.32 280.127 1170.58 275.7 Q1172.86 271.244 1172.86 262.361 Q1172.86 253.449 1170.58 249.022 Q1168.32 244.566 1163.78 244.566 M1163.78 239.936 Q1171.04 239.936 1174.86 245.694 Q1178.71 251.423 1178.71 262.361 Q1178.71 273.269 1174.86 279.027 Q1171.04 284.756 1163.78 284.756 Q1156.52 284.756 1152.67 279.027 Q1148.85 273.269 1148.85 262.361 Q1148.85 251.423 1152.67 245.694 Q1156.52 239.936 1163.78 239.936 Z" fill="#000000" fill-rule="evenodd" fill-opacity="1"></path><path clip-path="url(#clip490)" d="M1201.48 244.566 Q1196.97 244.566 1194.68 249.022 Q1192.43 253.449 1192.43 262.361 Q1192.43 271.244 1194.68 275.7 Q1196.97 280.127 1201.48 280.127 Q1206.02 280.127 1208.28 275.7 Q1210.57 271.244 1210.57 262.361 Q1210.57 253.449 1208.28 249.022 Q1206.02 244.566 1201.48 244.566 M1201.48 239.936 Q1208.74 239.936 1212.56 245.694 Q1216.41 251.423 1216.41 262.361 Q1216.41 273.269 1212.56 279.027 Q1208.74 284.756 1201.48 284.756 Q1194.22 284.756 1190.37 279.027 Q1186.55 273.269 1186.55 262.361 Q1186.55 251.423 1190.37 245.694 Q1194.22 239.936 1201.48 239.936 Z" fill="#000000" fill-rule="evenodd" fill-opacity="1"></path><path clip-path="url(#clip490)" d="M1083.7 821.912 L1093.25 821.912 L1093.25 788.955 L1082.86 791.038 L1082.86 785.714 L1093.19 783.631 L1099.03 783.631 L1099.03 821.912 L1108.58 821.912 L1108.58 826.831 L1083.7 826.831 L1083.7 821.912 Z" fill="#000000" fill-rule="evenodd" fill-opacity="1"></path><path clip-path="url(#clip490)" d="M1125.42 821.912 L1145.82 821.912 L1145.82 826.831 L1118.39 826.831 L1118.39 821.912 Q1121.72 818.468 1127.45 812.681 Q1133.21 806.865 1134.68 805.187 Q1137.49 802.033 1138.59 799.863 Q1139.72 797.664 1139.72 795.552 Q1139.72 792.108 1137.29 789.938 Q1134.88 787.768 1131.01 787.768 Q1128.26 787.768 1125.19 788.723 Q1122.15 789.678 1118.68 791.617 L1118.68 785.714 Q1122.21 784.296 1125.28 783.573 Q1128.34 782.849 1130.89 782.849 Q1137.6 782.849 1141.6 786.206 Q1145.59 789.562 1145.59 795.176 Q1145.59 797.838 1144.58 800.239 Q1143.59 802.612 1140.96 805.853 Q1140.24 806.692 1136.36 810.714 Q1132.48 814.707 1125.42 821.912 Z" fill="#000000" fill-rule="evenodd" fill-opacity="1"></path><path clip-path="url(#clip490)" d="M1158.09 819.481 L1164.19 819.481 L1164.19 826.831 L1158.09 826.831 L1158.09 819.481 Z" fill="#000000" fill-rule="evenodd" fill-opacity="1"></path><path clip-path="url(#clip490)" d="M1189.43 787.479 Q1184.91 787.479 1182.63 791.935 Q1180.37 796.362 1180.37 805.274 Q1180.37 814.157 1182.63 818.613 Q1184.91 823.04 1189.43 823.04 Q1193.97 823.04 1196.23 818.613 Q1198.51 814.157 1198.51 805.274 Q1198.51 796.362 1196.23 791.935 Q1193.97 787.479 1189.43 787.479 M1189.43 782.849 Q1196.69 782.849 1200.51 788.607 Q1204.36 794.336 1204.36 805.274 Q1204.36 816.182 1200.51 821.94 Q1196.69 827.67 1189.43 827.67 Q1182.16 827.67 1178.31 821.94 Q1174.5 816.182 1174.5 805.274 Q1174.5 794.336 1178.31 788.607 Q1182.16 782.849 1189.43 782.849 Z" fill="#000000" fill-rule="evenodd" fill-opacity="1"></path><path clip-path="url(#clip490)" d="M1227.13 787.479 Q1222.61 787.479 1220.33 791.935 Q1218.07 796.362 1218.07 805.274 Q1218.07 814.157 1220.33 818.613 Q1222.61 823.04 1227.13 823.04 Q1231.67 823.04 1233.93 818.613 Q1236.21 814.157 1236.21 805.274 Q1236.21 796.362 1233.93 791.935 Q1231.67 787.479 1227.13 787.479 M1227.13 782.849 Q1234.39 782.849 1238.21 788.607 Q1242.06 794.336 1242.06 805.274 Q1242.06 816.182 1238.21 821.94 Q1234.39 827.67 1227.13 827.67 Q1219.87 827.67 1216.02 821.94 Q1212.2 816.182 1212.2 805.274 Q1212.2 794.336 1216.02 788.607 Q1219.87 782.849 1227.13 782.849 Z" fill="#000000" fill-rule="evenodd" fill-opacity="1"></path><path clip-path="url(#clip490)" d="M1277.27 781.547 L1277.27 840.806 L1272.35 840.806 L1272.35 781.547 L1277.27 781.547 Z" fill="#000000" fill-rule="evenodd" fill-opacity="1"></path><path clip-path="url(#clip490)" d="M1322.47 787.479 Q1317.96 787.479 1315.67 791.935 Q1313.41 796.362 1313.41 805.274 Q1313.41 814.157 1315.67 818.613 Q1317.96 823.04 1322.47 823.04 Q1327.01 823.04 1329.27 818.613 Q1331.55 814.157 1331.55 805.274 Q1331.55 796.362 1329.27 791.935 Q1327.01 787.479 1322.47 787.479 M1322.47 782.849 Q1329.73 782.849 1333.55 788.607 Q1337.4 794.336 1337.4 805.274 Q1337.4 816.182 1333.55 821.94 Q1329.73 827.67 1322.47 827.67 Q1315.21 827.67 1311.36 821.94 Q1307.54 816.182 1307.54 805.274 Q1307.54 794.336 1311.36 788.607 Q1315.21 782.849 1322.47 782.849 Z" fill="#000000" fill-rule="evenodd" fill-opacity="1"></path><path clip-path="url(#clip490)" d="M1347.67 819.481 L1353.78 819.481 L1353.78 826.831 L1347.67 826.831 L1347.67 819.481 Z" fill="#000000" fill-rule="evenodd" fill-opacity="1"></path><path clip-path="url(#clip490)" d="M1379.01 787.479 Q1374.49 787.479 1372.21 791.935 Q1369.95 796.362 1369.95 805.274 Q1369.95 814.157 1372.21 818.613 Q1374.49 823.04 1379.01 823.04 Q1383.55 823.04 1385.81 818.613 Q1388.09 814.157 1388.09 805.274 Q1388.09 796.362 1385.81 791.935 Q1383.55 787.479 1379.01 787.479 M1379.01 782.849 Q1386.27 782.849 1390.09 788.607 Q1393.94 794.336 1393.94 805.274 Q1393.94 816.182 1390.09 821.94 Q1386.27 827.67 1379.01 827.67 Q1371.75 827.67 1367.9 821.94 Q1364.08 816.182 1364.08 805.274 Q1364.08 794.336 1367.9 788.607 Q1371.75 782.849 1379.01 782.849 Z" fill="#000000" fill-rule="evenodd" fill-opacity="1"></path><path clip-path="url(#clip490)" d="M1416.71 787.479 Q1412.2 787.479 1409.91 791.935 Q1407.65 796.362 1407.65 805.274 Q1407.65 814.157 1409.91 818.613 Q1412.2 823.04 1416.71 823.04 Q1421.25 823.04 1423.51 818.613 Q1425.8 814.157 1425.8 805.274 Q1425.8 796.362 1423.51 791.935 Q1421.25 787.479 1416.71 787.479 M1416.71 782.849 Q1423.97 782.849 1427.79 788.607 Q1431.64 794.336 1431.64 805.274 Q1431.64 816.182 1427.79 821.94 Q1423.97 827.67 1416.71 827.67 Q1409.45 827.67 1405.6 821.94 Q1401.78 816.182 1401.78 805.274 Q1401.78 794.336 1405.6 788.607 Q1409.45 782.849 1416.71 782.849 Z" fill="#000000" fill-rule="evenodd" fill-opacity="1"></path><path clip-path="url(#clip490)" d="M1526.43 1354.36 L1535.98 1354.36 L1535.98 1321.41 L1525.59 1323.49 L1525.59 1318.17 L1535.92 1316.08 L1541.76 1316.08 L1541.76 1354.36 L1551.31 1354.36 L1551.31 1359.28 L1526.43 1359.28 L1526.43 1354.36 Z" fill="#000000" fill-rule="evenodd" fill-opacity="1"></path><path clip-path="url(#clip490)" d="M1561.64 1316.08 L1589.42 1316.08 L1589.42 1318.57 L1573.74 1359.28 L1567.63 1359.28 L1582.39 1321 L1561.64 1321 L1561.64 1316.08 Z" fill="#000000" fill-rule="evenodd" fill-opacity="1"></path><path clip-path="url(#clip490)" d="M1605.85 1354.36 L1626.25 1354.36 L1626.25 1359.28 L1598.82 1359.28 L1598.82 1354.36 Q1602.15 1350.92 1607.88 1345.13 Q1613.64 1339.32 1615.11 1337.64 Q1617.92 1334.49 1619.02 1332.32 Q1620.15 1330.12 1620.15 1328 Q1620.15 1324.56 1617.72 1322.39 Q1615.32 1320.22 1611.44 1320.22 Q1608.69 1320.22 1605.62 1321.18 Q1602.59 1322.13 1599.11 1324.07 L1599.11 1318.17 Q1602.64 1316.75 1605.71 1316.02 Q1608.78 1315.3 1611.32 1315.3 Q1618.04 1315.3 1622.03 1318.66 Q1626.02 1322.01 1626.02 1327.63 Q1626.02 1330.29 1625.01 1332.69 Q1624.03 1335.06 1621.39 1338.3 Q1620.67 1339.14 1616.79 1343.17 Q1612.91 1347.16 1605.85 1354.36 Z" fill="#000000" fill-rule="evenodd" fill-opacity="1"></path><path clip-path="url(#clip490)" d="M1651.02 1338.77 Q1646.86 1338.77 1644.45 1341 Q1642.08 1343.22 1642.08 1347.13 Q1642.08 1351.04 1644.45 1353.26 Q1646.86 1355.49 1651.02 1355.49 Q1655.19 1355.49 1657.59 1353.26 Q1659.99 1351.01 1659.99 1347.13 Q1659.99 1343.22 1657.59 1341 Q1655.22 1338.77 1651.02 1338.77 M1645.18 1336.28 Q1641.42 1335.35 1639.3 1332.78 Q1637.22 1330.2 1637.22 1326.5 Q1637.22 1321.32 1640.9 1318.31 Q1644.6 1315.3 1651.02 1315.3 Q1657.47 1315.3 1661.15 1318.31 Q1664.82 1321.32 1664.82 1326.5 Q1664.82 1330.2 1662.71 1332.78 Q1660.63 1335.35 1656.9 1336.28 Q1661.12 1337.26 1663.46 1340.13 Q1665.84 1342.99 1665.84 1347.13 Q1665.84 1353.41 1661.99 1356.77 Q1658.17 1360.12 1651.02 1360.12 Q1643.88 1360.12 1640.03 1356.77 Q1636.21 1353.41 1636.21 1347.13 Q1636.21 1342.99 1638.58 1340.13 Q1640.95 1337.26 1645.18 1336.28 M1643.04 1327.05 Q1643.04 1330.41 1645.12 1332.29 Q1647.23 1334.17 1651.02 1334.17 Q1654.78 1334.17 1656.9 1332.29 Q1659.04 1330.41 1659.04 1327.05 Q1659.04 1323.69 1656.9 1321.81 Q1654.78 1319.93 1651.02 1319.93 Q1647.23 1319.93 1645.12 1321.81 Q1643.04 1323.69 1643.04 1327.05 Z" fill="#000000" fill-rule="evenodd" fill-opacity="1"></path><path clip-path="url(#clip490)" d="M1676.22 1351.93 L1682.33 1351.93 L1682.33 1359.28 L1676.22 1359.28 L1676.22 1351.93 Z" fill="#000000" fill-rule="evenodd" fill-opacity="1"></path><path clip-path="url(#clip490)" d="M1707.56 1319.93 Q1703.05 1319.93 1700.76 1324.39 Q1698.5 1328.81 1698.5 1337.73 Q1698.5 1346.61 1700.76 1351.07 Q1703.05 1355.49 1707.56 1355.49 Q1712.1 1355.49 1714.36 1351.07 Q1716.65 1346.61 1716.65 1337.73 Q1716.65 1328.81 1714.36 1324.39 Q1712.1 1319.93 1707.56 1319.93 M1707.56 1315.3 Q1714.82 1315.3 1718.64 1321.06 Q1722.49 1326.79 1722.49 1337.73 Q1722.49 1348.63 1718.64 1354.39 Q1714.82 1360.12 1707.56 1360.12 Q1700.3 1360.12 1696.45 1354.39 Q1692.63 1348.63 1692.63 1337.73 Q1692.63 1326.79 1696.45 1321.06 Q1700.3 1315.3 1707.56 1315.3 Z" fill="#000000" fill-rule="evenodd" fill-opacity="1"></path><path clip-path="url(#clip490)" d="M1745.26 1319.93 Q1740.75 1319.93 1738.46 1324.39 Q1736.21 1328.81 1736.21 1337.73 Q1736.21 1346.61 1738.46 1351.07 Q1740.75 1355.49 1745.26 1355.49 Q1749.81 1355.49 1752.06 1351.07 Q1754.35 1346.61 1754.35 1337.73 Q1754.35 1328.81 1752.06 1324.39 Q1749.81 1319.93 1745.26 1319.93 M1745.26 1315.3 Q1752.53 1315.3 1756.35 1321.06 Q1760.19 1326.79 1760.19 1337.73 Q1760.19 1348.63 1756.35 1354.39 Q1752.53 1360.12 1745.26 1360.12 Q1738 1360.12 1734.15 1354.39 Q1730.33 1348.63 1730.33 1337.73 Q1730.33 1326.79 1734.15 1321.06 Q1738 1315.3 1745.26 1315.3 Z" fill="#000000" fill-rule="evenodd" fill-opacity="1"></path><path clip-path="url(#clip490)" d="M1795.41 1314 L1795.41 1373.26 L1790.49 1373.26 L1790.49 1314 L1795.41 1314 Z" fill="#000000" fill-rule="evenodd" fill-opacity="1"></path><path clip-path="url(#clip490)" d="M1840.6 1319.93 Q1836.09 1319.93 1833.8 1324.39 Q1831.55 1328.81 1831.55 1337.73 Q1831.55 1346.61 1833.8 1351.07 Q1836.09 1355.49 1840.6 1355.49 Q1845.15 1355.49 1847.4 1351.07 Q1849.69 1346.61 1849.69 1337.73 Q1849.69 1328.81 1847.4 1324.39 Q1845.15 1319.93 1840.6 1319.93 M1840.6 1315.3 Q1847.87 1315.3 1851.69 1321.06 Q1855.54 1326.79 1855.54 1337.73 Q1855.54 1348.63 1851.69 1354.39 Q1847.87 1360.12 1840.6 1360.12 Q1833.34 1360.12 1829.49 1354.39 Q1825.67 1348.63 1825.67 1337.73 Q1825.67 1326.79 1829.49 1321.06 Q1833.34 1315.3 1840.6 1315.3 Z" fill="#000000" fill-rule="evenodd" fill-opacity="1"></path><path clip-path="url(#clip490)" d="M1865.81 1351.93 L1871.91 1351.93 L1871.91 1359.28 L1865.81 1359.28 L1865.81 1351.93 Z" fill="#000000" fill-rule="evenodd" fill-opacity="1"></path><path clip-path="url(#clip490)" d="M1897.14 1319.93 Q1892.63 1319.93 1890.34 1324.39 Q1888.09 1328.81 1888.09 1337.73 Q1888.09 1346.61 1890.34 1351.07 Q1892.63 1355.49 1897.14 1355.49 Q1901.69 1355.49 1903.94 1351.07 Q1906.23 1346.61 1906.23 1337.73 Q1906.23 1328.81 1903.94 1324.39 Q1901.69 1319.93 1897.14 1319.93 M1897.14 1315.3 Q1904.41 1315.3 1908.23 1321.06 Q1912.07 1326.79 1912.07 1337.73 Q1912.07 1348.63 1908.23 1354.39 Q1904.41 1360.12 1897.14 1360.12 Q1889.88 1360.12 1886.03 1354.39 Q1882.21 1348.63 1882.21 1337.73 Q1882.21 1326.79 1886.03 1321.06 Q1889.88 1315.3 1897.14 1315.3 Z" fill="#000000" fill-rule="evenodd" fill-opacity="1"></path><path clip-path="url(#clip490)" d="M1934.85 1319.93 Q1930.33 1319.93 1928.05 1324.39 Q1925.79 1328.81 1925.79 1337.73 Q1925.79 1346.61 1928.05 1351.07 Q1930.33 1355.49 1934.85 1355.49 Q1939.39 1355.49 1941.65 1351.07 Q1943.93 1346.61 1943.93 1337.73 Q1943.93 1328.81 1941.65 1324.39 Q1939.39 1319.93 1934.85 1319.93 M1934.85 1315.3 Q1942.11 1315.3 1945.93 1321.06 Q1949.78 1326.79 1949.78 1337.73 Q1949.78 1348.63 1945.93 1354.39 Q1942.11 1360.12 1934.85 1360.12 Q1927.58 1360.12 1923.74 1354.39 Q1919.92 1348.63 1919.92 1337.73 Q1919.92 1326.79 1923.74 1321.06 Q1927.58 1315.3 1934.85 1315.3 Z" fill="#000000" fill-rule="evenodd" fill-opacity="1"></path><path clip-path="url(#clip490)" d="M1498.92 324.865 L1508.47 324.865 L1508.47 291.908 L1498.08 293.992 L1498.08 288.668 L1508.41 286.584 L1514.25 286.584 L1514.25 324.865 L1523.8 324.865 L1523.8 329.784 L1498.92 329.784 L1498.92 324.865 Z" fill="#000000" fill-rule="evenodd" fill-opacity="1"></path><path clip-path="url(#clip490)" d="M1535.61 322.435 L1541.71 322.435 L1541.71 329.784 L1535.61 329.784 L1535.61 322.435 Z" fill="#000000" fill-rule="evenodd" fill-opacity="1"></path><path clip-path="url(#clip490)" d="M1566.94 290.433 Q1562.43 290.433 1560.15 294.889 Q1557.89 299.316 1557.89 308.228 Q1557.89 317.111 1560.15 321.567 Q1562.43 325.994 1566.94 325.994 Q1571.49 325.994 1573.74 321.567 Q1576.03 317.111 1576.03 308.228 Q1576.03 299.316 1573.74 294.889 Q1571.49 290.433 1566.94 290.433 M1566.94 285.803 Q1574.21 285.803 1578.03 291.561 Q1581.88 297.29 1581.88 308.228 Q1581.88 319.136 1578.03 324.894 Q1574.21 330.623 1566.94 330.623 Q1559.68 330.623 1555.83 324.894 Q1552.01 319.136 1552.01 308.228 Q1552.01 297.29 1555.83 291.561 Q1559.68 285.803 1566.94 285.803 Z" fill="#000000" fill-rule="evenodd" fill-opacity="1"></path><path clip-path="url(#clip490)" d="M1604.65 290.433 Q1600.13 290.433 1597.85 294.889 Q1595.59 299.316 1595.59 308.228 Q1595.59 317.111 1597.85 321.567 Q1600.13 325.994 1604.65 325.994 Q1609.19 325.994 1611.45 321.567 Q1613.73 317.111 1613.73 308.228 Q1613.73 299.316 1611.45 294.889 Q1609.19 290.433 1604.65 290.433 M1604.65 285.803 Q1611.91 285.803 1615.73 291.561 Q1619.58 297.29 1619.58 308.228 Q1619.58 319.136 1615.73 324.894 Q1611.91 330.623 1604.65 330.623 Q1597.38 330.623 1593.54 324.894 Q1589.72 319.136 1589.72 308.228 Q1589.72 297.29 1593.54 291.561 Q1597.38 285.803 1604.65 285.803 Z" fill="#000000" fill-rule="evenodd" fill-opacity="1"></path><path clip-path="url(#clip490)" d="M1654.79 284.501 L1654.79 343.76 L1649.87 343.76 L1649.87 284.501 L1654.79 284.501 Z" fill="#000000" fill-rule="evenodd" fill-opacity="1"></path><path clip-path="url(#clip490)" d="M1699.99 290.433 Q1695.47 290.433 1693.19 294.889 Q1690.93 299.316 1690.93 308.228 Q1690.93 317.111 1693.19 321.567 Q1695.47 325.994 1699.99 325.994 Q1704.53 325.994 1706.79 321.567 Q1709.07 317.111 1709.07 308.228 Q1709.07 299.316 1706.79 294.889 Q1704.53 290.433 1699.99 290.433 M1699.99 285.803 Q1707.25 285.803 1711.07 291.561 Q1714.92 297.29 1714.92 308.228 Q1714.92 319.136 1711.07 324.894 Q1707.25 330.623 1699.99 330.623 Q1692.73 330.623 1688.88 324.894 Q1685.06 319.136 1685.06 308.228 Q1685.06 297.29 1688.88 291.561 Q1692.73 285.803 1699.99 285.803 Z" fill="#000000" fill-rule="evenodd" fill-opacity="1"></path><path clip-path="url(#clip490)" d="M1725.19 322.435 L1731.3 322.435 L1731.3 329.784 L1725.19 329.784 L1725.19 322.435 Z" fill="#000000" fill-rule="evenodd" fill-opacity="1"></path><path clip-path="url(#clip490)" d="M1756.53 290.433 Q1752.01 290.433 1749.73 294.889 Q1747.47 299.316 1747.47 308.228 Q1747.47 317.111 1749.73 321.567 Q1752.01 325.994 1756.53 325.994 Q1761.07 325.994 1763.33 321.567 Q1765.61 317.111 1765.61 308.228 Q1765.61 299.316 1763.33 294.889 Q1761.07 290.433 1756.53 290.433 M1756.53 285.803 Q1763.79 285.803 1767.61 291.561 Q1771.46 297.29 1771.46 308.228 Q1771.46 319.136 1767.61 324.894 Q1763.79 330.623 1756.53 330.623 Q1749.26 330.623 1745.42 324.894 Q1741.6 319.136 1741.6 308.228 Q1741.6 297.29 1745.42 291.561 Q1749.26 285.803 1756.53 285.803 Z" fill="#000000" fill-rule="evenodd" fill-opacity="1"></path><path clip-path="url(#clip490)" d="M1794.23 290.433 Q1789.72 290.433 1787.43 294.889 Q1785.17 299.316 1785.17 308.228 Q1785.17 317.111 1787.43 321.567 Q1789.72 325.994 1794.23 325.994 Q1798.77 325.994 1801.03 321.567 Q1803.32 317.111 1803.32 308.228 Q1803.32 299.316 1801.03 294.889 Q1798.77 290.433 1794.23 290.433 M1794.23 285.803 Q1801.49 285.803 1805.31 291.561 Q1809.16 297.29 1809.16 308.228 Q1809.16 319.136 1805.31 324.894 Q1801.49 330.623 1794.23 330.623 Q1786.97 330.623 1783.12 324.894 Q1779.3 319.136 1779.3 308.228 Q1779.3 297.29 1783.12 291.561 Q1786.97 285.803 1794.23 285.803 Z" fill="#000000" fill-rule="evenodd" fill-opacity="1"></path><path clip-path="url(#clip490)" d="M1309.09 1087.85 L1318.64 1087.85 L1318.64 1054.89 L1308.25 1056.97 L1308.25 1051.65 L1318.58 1049.57 L1324.42 1049.57 L1324.42 1087.85 L1333.97 1087.85 L1333.97 1092.77 L1309.09 1092.77 L1309.09 1087.85 Z" fill="#000000" fill-rule="evenodd" fill-opacity="1"></path><path clip-path="url(#clip490)" d="M1344.3 1049.57 L1372.08 1049.57 L1372.08 1052.05 L1356.4 1092.77 L1350.29 1092.77 L1365.05 1054.48 L1344.3 1054.48 L1344.3 1049.57 Z" fill="#000000" fill-rule="evenodd" fill-opacity="1"></path><path clip-path="url(#clip490)" d="M1388.51 1087.85 L1408.91 1087.85 L1408.91 1092.77 L1381.48 1092.77 L1381.48 1087.85 Q1384.81 1084.4 1390.54 1078.62 Q1396.3 1072.8 1397.77 1071.12 Q1400.58 1067.97 1401.68 1065.8 Q1402.81 1063.6 1402.81 1061.49 Q1402.81 1058.04 1400.38 1055.87 Q1397.98 1053.7 1394.1 1053.7 Q1391.35 1053.7 1388.28 1054.66 Q1385.25 1055.61 1381.77 1057.55 L1381.77 1051.65 Q1385.3 1050.23 1388.37 1049.51 Q1391.44 1048.78 1393.98 1048.78 Q1400.7 1048.78 1404.69 1052.14 Q1408.68 1055.5 1408.68 1061.11 Q1408.68 1063.77 1407.67 1066.17 Q1406.69 1068.55 1404.05 1071.79 Q1403.33 1072.63 1399.45 1076.65 Q1395.58 1080.64 1388.51 1087.85 Z" fill="#000000" fill-rule="evenodd" fill-opacity="1"></path><path clip-path="url(#clip490)" d="M1433.68 1072.25 Q1429.52 1072.25 1427.11 1074.48 Q1424.74 1076.71 1424.74 1080.61 Q1424.74 1084.52 1427.11 1086.75 Q1429.52 1088.98 1433.68 1088.98 Q1437.85 1088.98 1440.25 1086.75 Q1442.65 1084.49 1442.65 1080.61 Q1442.65 1076.71 1440.25 1074.48 Q1437.88 1072.25 1433.68 1072.25 M1427.84 1069.76 Q1424.08 1068.84 1421.96 1066.26 Q1419.88 1063.69 1419.88 1059.98 Q1419.88 1054.8 1423.56 1051.79 Q1427.26 1048.78 1433.68 1048.78 Q1440.14 1048.78 1443.81 1051.79 Q1447.48 1054.8 1447.48 1059.98 Q1447.48 1063.69 1445.37 1066.26 Q1443.29 1068.84 1439.56 1069.76 Q1443.78 1070.75 1446.12 1073.61 Q1448.5 1076.48 1448.5 1080.61 Q1448.5 1086.89 1444.65 1090.25 Q1440.83 1093.61 1433.68 1093.61 Q1426.54 1093.61 1422.69 1090.25 Q1418.87 1086.89 1418.87 1080.61 Q1418.87 1076.48 1421.24 1073.61 Q1423.61 1070.75 1427.84 1069.76 M1425.7 1060.53 Q1425.7 1063.89 1427.78 1065.77 Q1429.89 1067.65 1433.68 1067.65 Q1437.44 1067.65 1439.56 1065.77 Q1441.7 1063.89 1441.7 1060.53 Q1441.7 1057.18 1439.56 1055.3 Q1437.44 1053.41 1433.68 1053.41 Q1429.89 1053.41 1427.78 1055.3 Q1425.7 1057.18 1425.7 1060.53 Z" fill="#000000" fill-rule="evenodd" fill-opacity="1"></path><path clip-path="url(#clip490)" d="M1458.88 1085.42 L1464.99 1085.42 L1464.99 1092.77 L1458.88 1092.77 L1458.88 1085.42 Z" fill="#000000" fill-rule="evenodd" fill-opacity="1"></path><path clip-path="url(#clip490)" d="M1490.22 1053.41 Q1485.71 1053.41 1483.42 1057.87 Q1481.16 1062.3 1481.16 1071.21 Q1481.16 1080.09 1483.42 1084.55 Q1485.71 1088.98 1490.22 1088.98 Q1494.76 1088.98 1497.02 1084.55 Q1499.31 1080.09 1499.31 1071.21 Q1499.31 1062.3 1497.02 1057.87 Q1494.76 1053.41 1490.22 1053.41 M1490.22 1048.78 Q1497.48 1048.78 1501.3 1054.54 Q1505.15 1060.27 1505.15 1071.21 Q1505.15 1082.12 1501.3 1087.88 Q1497.48 1093.61 1490.22 1093.61 Q1482.96 1093.61 1479.11 1087.88 Q1475.29 1082.12 1475.29 1071.21 Q1475.29 1060.27 1479.11 1054.54 Q1482.96 1048.78 1490.22 1048.78 Z" fill="#000000" fill-rule="evenodd" fill-opacity="1"></path><path clip-path="url(#clip490)" d="M1527.92 1053.41 Q1523.41 1053.41 1521.12 1057.87 Q1518.87 1062.3 1518.87 1071.21 Q1518.87 1080.09 1521.12 1084.55 Q1523.41 1088.98 1527.92 1088.98 Q1532.47 1088.98 1534.72 1084.55 Q1537.01 1080.09 1537.01 1071.21 Q1537.01 1062.3 1534.72 1057.87 Q1532.47 1053.41 1527.92 1053.41 M1527.92 1048.78 Q1535.19 1048.78 1539.01 1054.54 Q1542.85 1060.27 1542.85 1071.21 Q1542.85 1082.12 1539.01 1087.88 Q1535.19 1093.61 1527.92 1093.61 Q1520.66 1093.61 1516.81 1087.88 Q1512.99 1082.12 1512.99 1071.21 Q1512.99 1060.27 1516.81 1054.54 Q1520.66 1048.78 1527.92 1048.78 Z" fill="#000000" fill-rule="evenodd" fill-opacity="1"></path><path clip-path="url(#clip490)" d="M1578.07 1047.48 L1578.07 1106.74 L1573.15 1106.74 L1573.15 1047.48 L1578.07 1047.48 Z" fill="#000000" fill-rule="evenodd" fill-opacity="1"></path><path clip-path="url(#clip490)" d="M1623.26 1053.41 Q1618.75 1053.41 1616.47 1057.87 Q1614.21 1062.3 1614.21 1071.21 Q1614.21 1080.09 1616.47 1084.55 Q1618.75 1088.98 1623.26 1088.98 Q1627.81 1088.98 1630.06 1084.55 Q1632.35 1080.09 1632.35 1071.21 Q1632.35 1062.3 1630.06 1057.87 Q1627.81 1053.41 1623.26 1053.41 M1623.26 1048.78 Q1630.53 1048.78 1634.35 1054.54 Q1638.2 1060.27 1638.2 1071.21 Q1638.2 1082.12 1634.35 1087.88 Q1630.53 1093.61 1623.26 1093.61 Q1616 1093.61 1612.15 1087.88 Q1608.33 1082.12 1608.33 1071.21 Q1608.33 1060.27 1612.15 1054.54 Q1616 1048.78 1623.26 1048.78 Z" fill="#000000" fill-rule="evenodd" fill-opacity="1"></path><path clip-path="url(#clip490)" d="M1648.47 1085.42 L1654.57 1085.42 L1654.57 1092.77 L1648.47 1092.77 L1648.47 1085.42 Z" fill="#000000" fill-rule="evenodd" fill-opacity="1"></path><path clip-path="url(#clip490)" d="M1679.8 1053.41 Q1675.29 1053.41 1673 1057.87 Q1670.75 1062.3 1670.75 1071.21 Q1670.75 1080.09 1673 1084.55 Q1675.29 1088.98 1679.8 1088.98 Q1684.35 1088.98 1686.6 1084.55 Q1688.89 1080.09 1688.89 1071.21 Q1688.89 1062.3 1686.6 1057.87 Q1684.35 1053.41 1679.8 1053.41 M1679.8 1048.78 Q1687.07 1048.78 1690.89 1054.54 Q1694.73 1060.27 1694.73 1071.21 Q1694.73 1082.12 1690.89 1087.88 Q1687.07 1093.61 1679.8 1093.61 Q1672.54 1093.61 1668.69 1087.88 Q1664.87 1082.12 1664.87 1071.21 Q1664.87 1060.27 1668.69 1054.54 Q1672.54 1048.78 1679.8 1048.78 Z" fill="#000000" fill-rule="evenodd" fill-opacity="1"></path><path clip-path="url(#clip490)" d="M1717.51 1053.41 Q1712.99 1053.41 1710.71 1057.87 Q1708.45 1062.3 1708.45 1071.21 Q1708.45 1080.09 1710.71 1084.55 Q1712.99 1088.98 1717.51 1088.98 Q1722.05 1088.98 1724.31 1084.55 Q1726.59 1080.09 1726.59 1071.21 Q1726.59 1062.3 1724.31 1057.87 Q1722.05 1053.41 1717.51 1053.41 M1717.51 1048.78 Q1724.77 1048.78 1728.59 1054.54 Q1732.44 1060.27 1732.44 1071.21 Q1732.44 1082.12 1728.59 1087.88 Q1724.77 1093.61 1717.51 1093.61 Q1710.24 1093.61 1706.4 1087.88 Q1702.58 1082.12 1702.58 1071.21 Q1702.58 1060.27 1706.4 1054.54 Q1710.24 1048.78 1717.51 1048.78 Z" fill="#000000" fill-rule="evenodd" fill-opacity="1"></path><path clip-path="url(#clip490)" d="M524.471 666.936 L509.714 689.997 L524.471 689.997 L524.471 666.936 M522.937 661.844 L530.287 661.844 L530.287 689.997 L536.45 689.997 L536.45 694.859 L530.287 694.859 L530.287 705.044 L524.471 705.044 L524.471 694.859 L504.969 694.859 L504.969 689.216 L522.937 661.844 Z" fill="#000000" fill-rule="evenodd" fill-opacity="1"></path><path clip-path="url(#clip490)" d="M546.114 697.694 L552.219 697.694 L552.219 705.044 L546.114 705.044 L546.114 697.694 Z" fill="#000000" fill-rule="evenodd" fill-opacity="1"></path><path clip-path="url(#clip490)" d="M577.451 665.692 Q572.937 665.692 570.651 670.148 Q568.394 674.575 568.394 683.487 Q568.394 692.37 570.651 696.826 Q572.937 701.253 577.451 701.253 Q581.994 701.253 584.25 696.826 Q586.536 692.37 586.536 683.487 Q586.536 674.575 584.25 670.148 Q581.994 665.692 577.451 665.692 M577.451 661.062 Q584.713 661.062 588.533 666.82 Q592.381 672.55 592.381 683.487 Q592.381 694.396 588.533 700.154 Q584.713 705.883 577.451 705.883 Q570.188 705.883 566.34 700.154 Q562.52 694.396 562.52 683.487 Q562.52 672.55 566.34 666.82 Q570.188 661.062 577.451 661.062 Z" fill="#000000" fill-rule="evenodd" fill-opacity="1"></path><path clip-path="url(#clip490)" d="M615.153 665.692 Q610.639 665.692 608.353 670.148 Q606.096 674.575 606.096 683.487 Q606.096 692.37 608.353 696.826 Q610.639 701.253 615.153 701.253 Q619.696 701.253 621.953 696.826 Q624.239 692.37 624.239 683.487 Q624.239 674.575 621.953 670.148 Q619.696 665.692 615.153 665.692 M615.153 661.062 Q622.416 661.062 626.235 666.82 Q630.084 672.55 630.084 683.487 Q630.084 694.396 626.235 700.154 Q622.416 705.883 615.153 705.883 Q607.89 705.883 604.042 700.154 Q600.223 694.396 600.223 683.487 Q600.223 672.55 604.042 666.82 Q607.89 661.062 615.153 661.062 Z" fill="#000000" fill-rule="evenodd" fill-opacity="1"></path><path clip-path="url(#clip490)" d="M665.298 659.76 L665.298 719.019 L660.379 719.019 L660.379 659.76 L665.298 659.76 Z" fill="#000000" fill-rule="evenodd" fill-opacity="1"></path><path clip-path="url(#clip490)" d="M710.494 665.692 Q705.98 665.692 703.694 670.148 Q701.437 674.575 701.437 683.487 Q701.437 692.37 703.694 696.826 Q705.98 701.253 710.494 701.253 Q715.037 701.253 717.294 696.826 Q719.58 692.37 719.58 683.487 Q719.58 674.575 717.294 670.148 Q715.037 665.692 710.494 665.692 M710.494 661.062 Q717.757 661.062 721.576 666.82 Q725.425 672.55 725.425 683.487 Q725.425 694.396 721.576 700.154 Q717.757 705.883 710.494 705.883 Q703.231 705.883 699.383 700.154 Q695.564 694.396 695.564 683.487 Q695.564 672.55 699.383 666.82 Q703.231 661.062 710.494 661.062 Z" fill="#000000" fill-rule="evenodd" fill-opacity="1"></path><path clip-path="url(#clip490)" d="M735.696 697.694 L741.802 697.694 L741.802 705.044 L735.696 705.044 L735.696 697.694 Z" fill="#000000" fill-rule="evenodd" fill-opacity="1"></path><path clip-path="url(#clip490)" d="M767.033 665.692 Q762.519 665.692 760.233 670.148 Q757.976 674.575 757.976 683.487 Q757.976 692.37 760.233 696.826 Q762.519 701.253 767.033 701.253 Q771.576 701.253 773.833 696.826 Q776.119 692.37 776.119 683.487 Q776.119 674.575 773.833 670.148 Q771.576 665.692 767.033 665.692 M767.033 661.062 Q774.296 661.062 778.115 666.82 Q781.964 672.55 781.964 683.487 Q781.964 694.396 778.115 700.154 Q774.296 705.883 767.033 705.883 Q759.77 705.883 755.922 700.154 Q752.103 694.396 752.103 683.487 Q752.103 672.55 755.922 666.82 Q759.77 661.062 767.033 661.062 Z" fill="#000000" fill-rule="evenodd" fill-opacity="1"></path><path clip-path="url(#clip490)" d="M804.735 665.692 Q800.222 665.692 797.936 670.148 Q795.679 674.575 795.679 683.487 Q795.679 692.37 797.936 696.826 Q800.222 701.253 804.735 701.253 Q809.278 701.253 811.535 696.826 Q813.821 692.37 813.821 683.487 Q813.821 674.575 811.535 670.148 Q809.278 665.692 804.735 665.692 M804.735 661.062 Q811.998 661.062 815.818 666.82 Q819.666 672.55 819.666 683.487 Q819.666 694.396 815.818 700.154 Q811.998 705.883 804.735 705.883 Q797.473 705.883 793.624 700.154 Q789.805 694.396 789.805 683.487 Q789.805 672.55 793.624 666.82 Q797.473 661.062 804.735 661.062 Z" fill="#000000" fill-rule="evenodd" fill-opacity="1"></path><path clip-path="url(#clip490)" d="M1081.68 527.593 Q1085.88 528.49 1088.22 531.325 Q1090.59 534.161 1090.59 538.327 Q1090.59 544.722 1086.19 548.223 Q1081.8 551.724 1073.7 551.724 Q1070.98 551.724 1068.08 551.175 Q1065.22 550.654 1062.15 549.583 L1062.15 543.941 Q1064.58 545.359 1067.47 546.082 Q1070.37 546.805 1073.52 546.805 Q1079.02 546.805 1081.88 544.635 Q1084.78 542.465 1084.78 538.327 Q1084.78 534.508 1082.09 532.367 Q1079.42 530.197 1074.65 530.197 L1069.62 530.197 L1069.62 525.394 L1074.88 525.394 Q1079.19 525.394 1081.48 523.686 Q1083.76 521.95 1083.76 518.71 Q1083.76 515.382 1081.39 513.617 Q1079.05 511.823 1074.65 511.823 Q1072.25 511.823 1069.5 512.344 Q1066.75 512.865 1063.45 513.964 L1063.45 508.756 Q1066.78 507.83 1069.67 507.367 Q1072.6 506.904 1075.17 506.904 Q1081.83 506.904 1085.7 509.942 Q1089.58 512.951 1089.58 518.102 Q1089.58 521.69 1087.53 524.178 Q1085.47 526.638 1081.68 527.593 Z" fill="#000000" fill-rule="evenodd" fill-opacity="1"></path><path clip-path="url(#clip490)" d="M1101.68 543.536 L1107.78 543.536 L1107.78 550.885 L1101.68 550.885 L1101.68 543.536 Z" fill="#000000" fill-rule="evenodd" fill-opacity="1"></path><path clip-path="url(#clip490)" d="M1133.01 511.534 Q1128.5 511.534 1126.21 515.99 Q1123.96 520.417 1123.96 529.329 Q1123.96 538.212 1126.21 542.668 Q1128.5 547.095 1133.01 547.095 Q1137.55 547.095 1139.81 542.668 Q1142.1 538.212 1142.1 529.329 Q1142.1 520.417 1139.81 515.99 Q1137.55 511.534 1133.01 511.534 M1133.01 506.904 Q1140.27 506.904 1144.09 512.662 Q1147.94 518.391 1147.94 529.329 Q1147.94 540.237 1144.09 545.995 Q1140.27 551.724 1133.01 551.724 Q1125.75 551.724 1121.9 545.995 Q1118.08 540.237 1118.08 529.329 Q1118.08 518.391 1121.9 512.662 Q1125.75 506.904 1133.01 506.904 Z" fill="#000000" fill-rule="evenodd" fill-opacity="1"></path><path clip-path="url(#clip490)" d="M1170.71 511.534 Q1166.2 511.534 1163.91 515.99 Q1161.66 520.417 1161.66 529.329 Q1161.66 538.212 1163.91 542.668 Q1166.2 547.095 1170.71 547.095 Q1175.26 547.095 1177.51 542.668 Q1179.8 538.212 1179.8 529.329 Q1179.8 520.417 1177.51 515.99 Q1175.26 511.534 1170.71 511.534 M1170.71 506.904 Q1177.98 506.904 1181.8 512.662 Q1185.64 518.391 1185.64 529.329 Q1185.64 540.237 1181.8 545.995 Q1177.98 551.724 1170.71 551.724 Q1163.45 551.724 1159.6 545.995 Q1155.78 540.237 1155.78 529.329 Q1155.78 518.391 1159.6 512.662 Q1163.45 506.904 1170.71 506.904 Z" fill="#000000" fill-rule="evenodd" fill-opacity="1"></path><path clip-path="url(#clip490)" d="M1220.86 505.602 L1220.86 564.861 L1215.94 564.861 L1215.94 505.602 L1220.86 505.602 Z" fill="#000000" fill-rule="evenodd" fill-opacity="1"></path><path clip-path="url(#clip490)" d="M1266.06 511.534 Q1261.54 511.534 1259.26 515.99 Q1257 520.417 1257 529.329 Q1257 538.212 1259.26 542.668 Q1261.54 547.095 1266.06 547.095 Q1270.6 547.095 1272.85 542.668 Q1275.14 538.212 1275.14 529.329 Q1275.14 520.417 1272.85 515.99 Q1270.6 511.534 1266.06 511.534 M1266.06 506.904 Q1273.32 506.904 1277.14 512.662 Q1280.99 518.391 1280.99 529.329 Q1280.99 540.237 1277.14 545.995 Q1273.32 551.724 1266.06 551.724 Q1258.79 551.724 1254.94 545.995 Q1251.12 540.237 1251.12 529.329 Q1251.12 518.391 1254.94 512.662 Q1258.79 506.904 1266.06 506.904 Z" fill="#000000" fill-rule="evenodd" fill-opacity="1"></path><path clip-path="url(#clip490)" d="M1291.26 543.536 L1297.36 543.536 L1297.36 550.885 L1291.26 550.885 L1291.26 543.536 Z" fill="#000000" fill-rule="evenodd" fill-opacity="1"></path><path clip-path="url(#clip490)" d="M1322.59 511.534 Q1318.08 511.534 1315.79 515.99 Q1313.54 520.417 1313.54 529.329 Q1313.54 538.212 1315.79 542.668 Q1318.08 547.095 1322.59 547.095 Q1327.14 547.095 1329.39 542.668 Q1331.68 538.212 1331.68 529.329 Q1331.68 520.417 1329.39 515.99 Q1327.14 511.534 1322.59 511.534 M1322.59 506.904 Q1329.86 506.904 1333.68 512.662 Q1337.52 518.391 1337.52 529.329 Q1337.52 540.237 1333.68 545.995 Q1329.86 551.724 1322.59 551.724 Q1315.33 551.724 1311.48 545.995 Q1307.66 540.237 1307.66 529.329 Q1307.66 518.391 1311.48 512.662 Q1315.33 506.904 1322.59 506.904 Z" fill="#000000" fill-rule="evenodd" fill-opacity="1"></path><path clip-path="url(#clip490)" d="M1360.3 511.534 Q1355.78 511.534 1353.5 515.99 Q1351.24 520.417 1351.24 529.329 Q1351.24 538.212 1353.5 542.668 Q1355.78 547.095 1360.3 547.095 Q1364.84 547.095 1367.1 542.668 Q1369.38 538.212 1369.38 529.329 Q1369.38 520.417 1367.1 515.99 Q1364.84 511.534 1360.3 511.534 M1360.3 506.904 Q1367.56 506.904 1371.38 512.662 Q1375.23 518.391 1375.23 529.329 Q1375.23 540.237 1371.38 545.995 Q1367.56 551.724 1360.3 551.724 Q1353.03 551.724 1349.19 545.995 Q1345.37 540.237 1345.37 529.329 Q1345.37 518.391 1349.19 512.662 Q1353.03 506.904 1360.3 506.904 Z" fill="#000000" fill-rule="evenodd" fill-opacity="1"></path><path clip-path="url(#clip490)" d="M1081.36 657.387 L1070.97 663 L1081.36 668.643 L1079.68 671.478 L1069.96 665.604 L1069.96 676.513 L1066.66 676.513 L1066.66 665.604 L1056.94 671.478 L1055.26 668.643 L1065.64 663 L1055.26 657.387 L1056.94 654.522 L1066.66 660.396 L1066.66 649.488 L1069.96 649.488 L1069.96 660.396 L1079.68 654.522 L1081.36 657.387 Z" fill="#000000" fill-rule="evenodd" fill-opacity="1"></path><path clip-path="url(#clip490)" d="M1599.2 1198.58 Q1598.3 1198.06 1597.23 1197.83 Q1596.19 1197.56 1594.92 1197.56 Q1590.41 1197.56 1587.98 1200.52 Q1585.57 1203.44 1585.57 1208.94 L1585.57 1226.01 L1580.22 1226.01 L1580.22 1193.6 L1585.57 1193.6 L1585.57 1198.64 Q1587.25 1195.68 1589.94 1194.27 Q1592.63 1192.82 1596.48 1192.82 Q1597.03 1192.82 1597.7 1192.91 Q1598.36 1192.96 1599.17 1193.11 L1599.2 1198.58 Z" fill="#000000" fill-rule="evenodd" fill-opacity="1"></path><path clip-path="url(#clip490)" d="M1631.2 1208.47 L1631.2 1211.08 L1606.73 1211.08 Q1607.07 1216.57 1610.02 1219.47 Q1613 1222.33 1618.3 1222.33 Q1621.37 1222.33 1624.23 1221.58 Q1627.12 1220.83 1629.96 1219.32 L1629.96 1224.36 Q1627.1 1225.57 1624.09 1226.21 Q1621.08 1226.85 1617.98 1226.85 Q1610.23 1226.85 1605.68 1222.33 Q1601.17 1217.82 1601.17 1210.12 Q1601.17 1202.17 1605.45 1197.51 Q1609.76 1192.82 1617.05 1192.82 Q1623.59 1192.82 1627.38 1197.04 Q1631.2 1201.24 1631.2 1208.47 M1625.88 1206.91 Q1625.82 1202.54 1623.42 1199.94 Q1621.05 1197.33 1617.11 1197.33 Q1612.66 1197.33 1609.97 1199.85 Q1607.3 1202.37 1606.9 1206.94 L1625.88 1206.91 Z" fill="#000000" fill-rule="evenodd" fill-opacity="1"></path><path clip-path="url(#clip490)" d="M1639.94 1180.98 L1645.27 1180.98 L1645.27 1226.01 L1639.94 1226.01 L1639.94 1180.98 Z" fill="#000000" fill-rule="evenodd" fill-opacity="1"></path><path clip-path="url(#clip490)" d="M1655.86 1213.22 L1655.86 1193.6 L1661.18 1193.6 L1661.18 1213.02 Q1661.18 1217.62 1662.97 1219.93 Q1664.77 1222.22 1668.36 1222.22 Q1672.67 1222.22 1675.16 1219.47 Q1677.67 1216.72 1677.67 1211.97 L1677.67 1193.6 L1683 1193.6 L1683 1226.01 L1677.67 1226.01 L1677.67 1221.03 Q1675.74 1223.98 1673.16 1225.43 Q1670.61 1226.85 1667.23 1226.85 Q1661.64 1226.85 1658.75 1223.37 Q1655.86 1219.9 1655.86 1213.22 M1669.25 1192.82 L1669.25 1192.82 Z" fill="#000000" fill-rule="evenodd" fill-opacity="1"></path><path clip-path="url(#clip490)" d="M1359.32 916.47 L1375.04 932.587 L1369.22 932.587 L1356.49 921.157 L1343.76 932.587 L1337.94 932.587 L1353.65 916.47 L1359.32 916.47 Z" fill="#000000" fill-rule="evenodd" fill-opacity="1"></path><path clip-path="url(#clip490)" d="M1399.69 914.705 Q1395.81 921.36 1393.93 927.87 Q1392.05 934.381 1392.05 941.065 Q1392.05 947.749 1393.93 954.317 Q1395.84 960.856 1399.69 967.482 L1395.06 967.482 Q1390.72 960.683 1388.55 954.114 Q1386.41 947.546 1386.41 941.065 Q1386.41 934.612 1388.55 928.073 Q1390.69 921.533 1395.06 914.705 L1399.69 914.705 Z" fill="#000000" fill-rule="evenodd" fill-opacity="1"></path><path clip-path="url(#clip490)" d="M1428.48 936.377 Q1432.68 937.274 1435.02 940.11 Q1437.39 942.945 1437.39 947.112 Q1437.39 953.507 1432.99 957.008 Q1428.6 960.509 1420.49 960.509 Q1417.77 960.509 1414.88 959.959 Q1412.02 959.438 1408.95 958.368 L1408.95 952.725 Q1411.38 954.143 1414.27 954.867 Q1417.17 955.59 1420.32 955.59 Q1425.82 955.59 1428.68 953.42 Q1431.58 951.25 1431.58 947.112 Q1431.58 943.293 1428.88 941.151 Q1426.22 938.981 1421.45 938.981 L1416.41 938.981 L1416.41 934.178 L1421.68 934.178 Q1425.99 934.178 1428.28 932.471 Q1430.56 930.735 1430.56 927.494 Q1430.56 924.167 1428.19 922.402 Q1425.85 920.608 1421.45 920.608 Q1419.05 920.608 1416.3 921.128 Q1413.55 921.649 1410.25 922.749 L1410.25 917.54 Q1413.58 916.615 1416.47 916.152 Q1419.39 915.689 1421.97 915.689 Q1428.62 915.689 1432.5 918.727 Q1436.38 921.736 1436.38 926.886 Q1436.38 930.474 1434.32 932.963 Q1432.27 935.422 1428.48 936.377 Z" fill="#000000" fill-rule="evenodd" fill-opacity="1"></path><path clip-path="url(#clip490)" d="M1446.88 914.705 L1451.51 914.705 Q1455.85 921.533 1457.99 928.073 Q1460.16 934.612 1460.16 941.065 Q1460.16 947.546 1457.99 954.114 Q1455.85 960.683 1451.51 967.482 L1446.88 967.482 Q1450.73 960.856 1452.61 954.317 Q1454.52 947.749 1454.52 941.065 Q1454.52 934.381 1452.61 927.87 Q1450.73 921.36 1446.88 914.705 Z" fill="#000000" fill-rule="evenodd" fill-opacity="1"></path><path clip-path="url(#clip490)" d="M1309.89 366.112 L1309.89 382.228 L1326.01 382.228 L1326.01 387.147 L1309.89 387.147 L1309.89 403.264 L1305.03 403.264 L1305.03 387.147 L1288.91 387.147 L1288.91 382.228 L1305.03 382.228 L1305.03 366.112 L1309.89 366.112 Z" fill="#000000" fill-rule="evenodd" fill-opacity="1"></path></svg>