<svg xmlns="http://www.w3.org/2000/svg" xmlns:xlink="http://www.w3.org/1999/xlink" version="1.2" width="141.42mm" height="100mm" viewBox="0 0 141.42 100" stroke="none" fill="#000000" stroke-width="0.3" font-size="3.88">
<defs>
  <marker id="arrow" markerWidth="15" markerHeight="7" refX="5" refY="3.5" orient="auto" markerUnits="strokeWidth">
    <path d="M0,0 L15,3.5 L0,7 z" stroke="context-stroke" fill="context-stroke"></path>
  </marker>
</defs>
<g stroke-width="1" fill="#000000" fill-opacity="0.000" stroke="#D3D3D3" id="img-2ce51d9a-1">
  <g transform="translate(21.23,28.71)">
    <path fill="none" d="M-4.62,-0.6 L4.62,0.6 " class="primitive"></path>
  </g>
  <g transform="translate(101.54,81.54)">
    <path fill="none" d="M-6.33,-2.34 L6.33,2.34 " class="primitive"></path>
  </g>
  <g transform="translate(58.16,59.27)">
    <path fill="none" d="M-6.71,-7.19 L6.71,7.19 " class="primitive"></path>
  </g>
  <g transform="translate(28.92,19.13)">
    <path fill="none" d="M-1.2,-7.35 L1.2,7.35 " class="primitive"></path>
  </g>
  <g transform="translate(64.03,78.8)">
    <path fill="none" d="M-2.28,6.08 L2.28,-6.08 " class="primitive"></path>
  </g>
  <g transform="translate(79.21,73.48)">
    <path fill="none" d="M-7.25,-2.56 L7.25,2.56 " class="primitive"></path>
  </g>
  <g transform="translate(120.93,88.57)">
    <path fill="none" d="M-4.32,-1.53 L4.32,1.53 " class="primitive"></path>
  </g>
  <g transform="translate(39.72,39.56)">
    <path fill="none" d="M-6.32,-6.73 L6.32,6.73 " class="primitive"></path>
  </g>
</g>
<g stroke-width="1" stroke="#D3D3D3" id="img-2ce51d9a-2">
  <g transform="translate(22.22,28.83)">
    <path fill="none" d="M-1.45,-1.64 L3.63,0.47 -2.18,1.17 " class="primitive"></path>
  </g>
  <g transform="translate(104.59,82.67)">
    <path fill="none" d="M-0.7,-1.87 L3.27,1.21 -2.57,0.66 " class="primitive"></path>
  </g>
  <g transform="translate(62.83,64.28)">
    <path fill="none" d="M0.67,-1.87 L2.03,2.18 -2.7,-0.31 " class="primitive"></path>
  </g>
  <g transform="translate(29.7,23.89)">
    <path fill="none" d="M1.79,-1.46 L0.42,2.59 -2.21,-1.13 " class="primitive"></path>
  </g>
  <g transform="translate(65.36,75.24)">
    <path fill="none" d="M-2.42,0.9 L0.95,-2.52 1.47,1.63 " class="primitive"></path>
  </g>
  <g transform="translate(83.16,74.87)">
    <path fill="none" d="M-0.75,-1.86 L3.3,1.17 -2.55,0.69 " class="primitive"></path>
  </g>
  <g transform="translate(121.95,88.94)">
    <path fill="none" d="M-0.74,-1.86 L3.3,1.17 -2.55,0.69 " class="primitive"></path>
  </g>
  <g transform="translate(43.99,44.12)">
    <path fill="none" d="M0.66,-1.88 L2.04,2.17 -2.7,-0.3 " class="primitive"></path>
  </g>
</g>
<g font-size="4" stroke="#000000" stroke-opacity="0.000" fill="#000000" id="img-2ce51d9a-3">
</g>
<g stroke-width="0" stroke="#000000" stroke-opacity="0.000" fill="#40E0D0" id="img-2ce51d9a-4">
  <g transform="translate(11.79,27.48)">
    <circle cx="0" cy="0" r="4.71" class="primitive"></circle>
  </g>
  <g transform="translate(90.86,77.59)">
    <circle cx="0" cy="0" r="4.71" class="primitive"></circle>
  </g>
  <g transform="translate(129.64,91.67)">
    <circle cx="0" cy="0" r="4.71" class="primitive"></circle>
  </g>
  <g transform="translate(48.75,49.18)">
    <circle cx="0" cy="0" r="4.71" class="primitive"></circle>
  </g>
  <g transform="translate(27.16,8.33)">
    <circle cx="0" cy="0" r="4.71" class="primitive"></circle>
  </g>
  <g transform="translate(60.48,88.24)">
    <circle cx="0" cy="0" r="4.71" class="primitive"></circle>
  </g>
  <g transform="translate(67.57,69.36)">
    <circle cx="0" cy="0" r="4.71" class="primitive"></circle>
  </g>
  <g transform="translate(112.22,85.48)">
    <circle cx="0" cy="0" r="4.71" class="primitive"></circle>
  </g>
  <g transform="translate(30.68,29.93)">
    <circle cx="0" cy="0" r="4.71" class="primitive"></circle>
  </g>
</g>
<g font-size="4" stroke="#000000" stroke-opacity="0.000" fill="#FFFFFF" id="img-2ce51d9a-5">
  <g transform="translate(11.79,27.48)">
    <g class="primitive">
      <text text-anchor="middle" dy="0.35em">2.00 | 0.00</text>
    </g>
  </g>
  <g transform="translate(90.86,77.59)">
    <g class="primitive">
      <text text-anchor="middle" dy="0.35em">12.00 | 0.00</text>
    </g>
  </g>
  <g transform="translate(129.64,91.67)">
    <g class="primitive">
      <text text-anchor="middle" dy="0.35em">1.00 | 0.00</text>
    </g>
  </g>
  <g transform="translate(48.75,49.18)">
    <g class="primitive">
      <text text-anchor="middle" dy="0.35em">3.00 | 0.00</text>
    </g>
  </g>
  <g transform="translate(27.16,8.33)">
    <g class="primitive">
      <text text-anchor="middle" dy="0.35em">1.00 | 0.00</text>
    </g>
  </g>
  <g transform="translate(60.48,88.24)">
    <g class="primitive">
      <text text-anchor="middle" dy="0.35em">4.00 | 0.00</text>
    </g>
  </g>
  <g transform="translate(67.57,69.36)">
    <g class="primitive">
      <text text-anchor="middle" dy="0.35em">*</text>
    </g>
  </g>
  <g transform="translate(112.22,85.48)">
    <g class="primitive">
      <text text-anchor="middle" dy="0.35em">tanh</text>
    </g>
  </g>
  <g transform="translate(30.68,29.93)">
    <g class="primitive">
      <text text-anchor="middle" dy="0.35em">+</text>
    </g>
  </g>
</g>
</svg>